<?xml version="1.0" standalone="no"?>
<!DOCTYPE svg PUBLIC "-//W3C//DTD SVG 20010904//EN"
 "http://www.w3.org/TR/2001/REC-SVG-20010904/DTD/svg10.dtd">
<svg version="1.0" xmlns="http://www.w3.org/2000/svg"
 width="939.000000pt" height="351.000000pt" viewBox="0 0 939.000000 351.000000"
 preserveAspectRatio="xMidYMid meet">

<g transform="translate(0.000000,351.000000) scale(0.100000,-0.100000)"
fill="#000000" stroke="none">
<path d="M5405 2945 c-104 -21 -268 -45 -312 -45 l-43 0 0 -67 c0 -88 7 -113
32 -113 32 0 75 -28 86 -57 32 -77 68 -571 58 -783 -10 -206 -35 -485 -61
-690 -13 -101 -23 -185 -22 -187 2 -1 23 11 47 27 25 17 74 39 109 51 77 26
139 22 211 -13 l50 -25 0 143 c0 131 -2 144 -19 154 -29 15 -73 12 -99 -6 -13
-9 -26 -14 -29 -11 -3 3 6 54 21 114 97 413 123 980 65 1433 -7 55 -16 89 -23
89 -6 -1 -38 -7 -71 -14z"/>
<path d="M7814 2933 c-4 -13 -3 -42 0 -66 6 -40 9 -43 56 -60 28 -10 55 -27
62 -40 9 -16 15 -120 19 -357 8 -358 28 -681 60 -928 10 -84 19 -157 19 -162
0 -5 -15 -1 -32 10 -34 20 -74 26 -94 12 -7 -4 -14 -58 -19 -129 -7 -131 -4
-140 38 -108 54 40 194 19 299 -45 35 -21 64 -37 64 -37 1 1 -5 41 -14 89 -8
49 -13 91 -9 94 3 3 23 -8 45 -26 45 -35 144 -70 203 -70 138 0 244 163 310
475 19 90 24 141 24 280 0 153 -2 177 -24 244 -29 89 -72 147 -131 181 -37 20
-58 25 -116 25 -134 -1 -236 -79 -314 -239 -37 -76 -40 -79 -40 -45 0 134 48
491 95 706 14 62 25 118 25 126 0 9 -30 17 -102 26 -129 16 -274 38 -356 55
-62 13 -62 13 -68 -11z m706 -1093 c56 -15 142 -72 167 -109 33 -48 30 -92 -8
-136 -45 -51 -109 -77 -206 -83 -75 -4 -88 -2 -136 23 -60 30 -134 97 -148
133 -28 72 26 137 141 173 36 11 149 10 190 -1z"/>
<path d="M3600 2921 c-111 -34 -149 -112 -116 -241 20 -79 52 -121 111 -150
63 -31 164 -25 252 14 107 49 140 107 113 205 -17 64 -99 145 -169 165 -57 17
-148 20 -191 7z"/>
<path d="M5600 2851 l0 -62 54 -24 c30 -13 61 -35 68 -47 8 -16 14 -115 19
-340 4 -174 10 -357 14 -405 21 -279 38 -453 54 -554 10 -63 17 -115 16 -117
-2 -2 -17 4 -34 12 -43 23 -98 21 -111 -3 -10 -19 -15 -241 -5 -241 2 0 19 9
37 20 69 42 228 18 342 -51 26 -17 50 -28 53 -26 2 3 -5 61 -16 129 -22 134
-51 402 -51 479 l0 47 43 7 c23 3 88 15 145 26 57 10 110 19 118 19 11 0 14
-20 14 -104 0 -99 -22 -414 -39 -552 -4 -35 -4 -64 0 -64 4 0 20 11 36 24 46
39 130 85 196 107 49 17 78 20 137 16 l75 -5 -8 132 c-4 72 -10 137 -12 144
-7 20 -79 15 -109 -9 -15 -12 -29 -20 -31 -18 -2 2 2 30 10 61 37 161 54 692
31 1006 l-9 122 52 51 c48 48 51 53 51 102 0 29 -3 68 -6 88 l-6 36 -142 -44
c-77 -24 -186 -55 -241 -70 -55 -14 -104 -29 -108 -33 -5 -4 6 -47 23 -96 65
-184 100 -386 100 -585 l0 -125 -57 7 c-32 4 -103 8 -157 8 l-99 1 6 193 c7
214 21 331 66 555 17 84 31 154 31 156 0 6 -130 27 -512 83 l-38 6 0 -62z"/>
<path d="M845 2884 c-92 -22 -117 -31 -168 -61 -100 -60 -170 -175 -204 -335
-23 -107 -25 -366 -4 -418 24 -59 52 -91 95 -111 50 -23 99 -24 205 -4 133 26
192 -6 226 -119 21 -71 57 -382 53 -457 -5 -89 -39 -141 -122 -183 -49 -26
-69 -30 -140 -30 -86 -1 -136 17 -136 49 0 8 32 35 70 61 118 78 167 153 177
274 10 117 -36 182 -152 215 -40 12 -74 15 -109 11 -134 -17 -207 -68 -246
-172 -19 -50 -21 -73 -18 -154 6 -122 42 -204 128 -290 101 -101 208 -136 390
-127 211 10 362 105 446 282 42 86 60 171 74 337 19 219 -15 358 -101 415 -42
28 -44 28 -203 28 -202 0 -229 12 -275 115 -29 67 -73 331 -69 415 6 119 64
171 182 163 78 -5 126 -35 126 -79 0 -24 -8 -34 -47 -58 -78 -48 -105 -73
-124 -115 -60 -132 35 -253 209 -264 160 -10 233 61 233 227 0 89 -6 120 -34
176 -47 94 -125 159 -227 189 -55 17 -199 29 -235 20z"/>
<path d="M4995 2508 c-40 -23 -183 -76 -284 -104 -99 -27 -102 -29 -97 -54 33
-152 46 -223 46 -264 l0 -48 -36 53 c-143 211 -299 255 -432 122 -75 -75 -126
-190 -163 -373 -25 -118 -37 -473 -20 -565 34 -181 136 -254 319 -228 106 15
187 59 261 140 l61 66 -1 -64 c0 -35 -4 -91 -8 -124 -5 -33 -7 -62 -5 -64 2
-2 26 14 54 34 114 84 296 130 356 90 l26 -17 -7 143 c-4 79 -12 150 -17 157
-14 17 -73 15 -109 -4 -17 -8 -32 -14 -34 -12 -2 2 2 41 10 85 23 132 35 321
35 553 l0 217 50 46 c45 42 50 50 50 90 0 70 -12 137 -24 137 -6 0 -20 -6 -31
-12z m-393 -668 c20 -6 51 -24 68 -40 30 -28 32 -34 28 -80 -6 -63 -61 -136
-141 -190 -65 -44 -116 -55 -211 -48 -142 12 -221 102 -172 197 29 56 141 135
226 162 37 11 160 10 202 -1z"/>
<path d="M7516 2432 c-3 -20 -6 -68 -6 -107 0 -267 -95 -801 -168 -944 -44
-89 -77 -93 -117 -15 -58 114 10 528 139 850 l34 84 -166 -6 c-117 -4 -193 -1
-254 8 -78 13 -88 12 -93 -1 -2 -9 -13 -48 -24 -88 l-19 -72 139 6 c76 3 139
3 139 -1 0 -3 -18 -35 -40 -70 -81 -128 -155 -318 -191 -489 -30 -138 -32
-339 -5 -416 24 -69 86 -135 144 -152 114 -34 263 71 371 261 l31 55 0 -40
c-1 -40 -12 -168 -26 -280 l-7 -60 79 73 c123 114 282 212 344 212 18 0 20 7
20 79 0 99 -12 115 -79 109 -25 -3 -55 -8 -65 -13 -19 -8 -19 -3 -12 187 3
108 13 288 21 400 14 187 17 204 37 221 17 14 32 17 58 13 79 -14 75 -16 75
44 l0 54 -100 39 c-55 21 -134 51 -176 67 l-77 29 -6 -37z"/>
<path d="M3790 2349 c-36 -22 -90 -49 -120 -60 -62 -23 -227 -59 -272 -59
l-31 0 7 -52 c3 -29 11 -70 16 -90 10 -34 14 -37 52 -40 35 -2 46 -9 65 -37
21 -31 23 -45 23 -165 0 -138 -21 -344 -44 -433 -22 -84 -45 -115 -107 -145
l-56 -27 -7 -87 c-4 -47 -6 -88 -4 -90 2 -2 49 7 104 20 185 43 285 51 404 32
58 -9 116 -19 130 -22 l25 -5 -3 133 c-4 161 -4 164 -34 144 -33 -24 -75 -20
-93 7 -47 72 -43 384 11 945 4 39 5 72 3 71 -2 0 -33 -19 -69 -40z"/>
<path d="M2752 2340 c-180 -48 -281 -149 -331 -329 -31 -112 -45 -310 -32
-466 23 -281 96 -435 243 -512 49 -25 62 -28 168 -28 100 0 122 3 167 24 67
30 137 104 173 185 31 69 70 208 70 252 0 26 -2 25 -30 -18 -63 -95 -148 -155
-252 -178 -101 -23 -151 18 -187 150 -31 116 -45 241 -46 410 0 134 3 165 23
228 39 125 120 191 232 192 90 0 206 -66 134 -76 -106 -15 -191 -84 -218 -174
-20 -67 -20 -147 -1 -193 19 -45 93 -110 143 -125 22 -7 65 -12 96 -12 104 0
176 48 201 134 19 64 19 218 0 282 -31 106 -120 198 -235 244 -80 32 -221 37
-318 10z"/>
<path d="M1914 2335 c-176 -32 -312 -163 -399 -386 -53 -134 -70 -331 -41
-481 39 -202 157 -385 299 -464 46 -26 62 -29 137 -29 104 0 144 18 217 99
111 121 178 331 204 642 21 247 -3 433 -66 525 -34 49 -92 83 -163 98 -65 13
-97 13 -188 -4z m161 -440 c109 -34 161 -96 153 -184 -12 -121 -132 -248 -286
-302 -111 -40 -269 -4 -324 74 -64 90 4 246 157 363 80 60 198 80 300 49z"/>
</g>
</svg>
